<svg width="55" height="23" viewBox="0 0 55 23" fill="none" xmlns="http://www.w3.org/2000/svg">
<path d="M11.1831 17H0.551063V0.199999H3.95906V13.928H11.1831V17ZM18.6336 17.12C15.1536 17.12 12.3696 14.36 12.3696 10.88C12.3696 7.4 15.1536 4.64 18.6336 4.64C22.1136 4.64 24.8976 7.4 24.8976 10.88C24.8976 14.36 22.1136 17.12 18.6336 17.12ZM18.6336 14.048C20.3616 14.048 21.7296 12.656 21.7296 10.88C21.7296 9.104 20.3616 7.712 18.6336 7.712C16.9056 7.712 15.5616 9.104 15.5616 10.88C15.5616 12.656 16.9056 14.048 18.6336 14.048ZM39.5361 23H30.3681V20.12H36.3441V15.608C35.3361 16.544 33.9441 17.12 32.4561 17.12C28.8321 17.12 26.4321 14.384 26.4321 10.88C26.4321 7.376 28.8321 4.64 32.4561 4.64C33.9441 4.64 35.3361 5.216 36.3441 6.152V4.76H39.5361V23ZM32.9601 14.36C34.9281 14.36 36.3441 12.872 36.3441 10.88C36.3441 8.888 34.9281 7.4 32.9601 7.4C31.0161 7.4 29.6241 8.888 29.6241 10.88C29.6241 12.872 31.0161 14.36 32.9601 14.36ZM47.9304 17.12C44.4504 17.12 41.6664 14.36 41.6664 10.88C41.6664 7.4 44.4504 4.64 47.9304 4.64C51.4104 4.64 54.1944 7.4 54.1944 10.88C54.1944 14.36 51.4104 17.12 47.9304 17.12ZM47.9304 14.048C49.6584 14.048 51.0264 12.656 51.0264 10.88C51.0264 9.104 49.6584 7.712 47.9304 7.712C46.2024 7.712 44.8584 9.104 44.8584 10.88C44.8584 12.656 46.2024 14.048 47.9304 14.048Z" fill="#3F6EEC"/>
</svg>
